<mxfile host="app.diagrams.net" modified="2023-08-06T02:57:12.973Z" agent="Mozilla/5.0 (Windows NT 10.0; Win64; x64) AppleWebKit/537.36 (KHTML, like Gecko) Chrome/115.0.0.0 Safari/537.36" etag="UhF88aCiW9LjQDdBlr1x" version="21.6.6" type="github">
  <diagram id="C5RBs43oDa-KdzZeNtuy" name="Page-1">
    <mxGraphModel dx="3585" dy="1895" grid="1" gridSize="14" guides="1" tooltips="1" connect="1" arrows="1" fold="1" page="1" pageScale="1" pageWidth="1169" pageHeight="1654" math="0" shadow="0">
      <root>
        <mxCell id="WIyWlLk6GJQsqaUBKTNV-0" />
        <mxCell id="WIyWlLk6GJQsqaUBKTNV-1" parent="WIyWlLk6GJQsqaUBKTNV-0" />
        <mxCell id="zkfFHV4jXpPFQw0GAbJ--0" value="Game" style="swimlane;fontStyle=2;align=center;verticalAlign=top;childLayout=stackLayout;horizontal=1;startSize=26;horizontalStack=0;resizeParent=1;resizeLast=0;collapsible=1;marginBottom=0;rounded=0;shadow=0;strokeWidth=1;" parent="WIyWlLk6GJQsqaUBKTNV-1" vertex="1">
          <mxGeometry x="392" y="168" width="210" height="974" as="geometry">
            <mxRectangle x="230" y="140" width="160" height="26" as="alternateBounds" />
          </mxGeometry>
        </mxCell>
        <mxCell id="zkfFHV4jXpPFQw0GAbJ--1" value="game_id" style="text;align=left;verticalAlign=top;spacingLeft=4;spacingRight=4;overflow=hidden;rotatable=0;points=[[0,0.5],[1,0.5]];portConstraint=eastwest;" parent="zkfFHV4jXpPFQw0GAbJ--0" vertex="1">
          <mxGeometry y="26" width="210" height="26" as="geometry" />
        </mxCell>
        <mxCell id="tj4HGv5EF83Of4Jhq_q1-1" value="game_title&#xa;" style="text;align=left;verticalAlign=top;spacingLeft=4;spacingRight=4;overflow=hidden;rotatable=0;points=[[0,0.5],[1,0.5]];portConstraint=eastwest;rounded=0;shadow=0;html=0;" parent="zkfFHV4jXpPFQw0GAbJ--0" vertex="1">
          <mxGeometry y="52" width="210" height="26" as="geometry" />
        </mxCell>
        <mxCell id="zkfFHV4jXpPFQw0GAbJ--2" value="genres" style="text;align=left;verticalAlign=top;spacingLeft=4;spacingRight=4;overflow=hidden;rotatable=0;points=[[0,0.5],[1,0.5]];portConstraint=eastwest;rounded=0;shadow=0;html=0;" parent="zkfFHV4jXpPFQw0GAbJ--0" vertex="1">
          <mxGeometry y="78" width="210" height="26" as="geometry" />
        </mxCell>
        <mxCell id="zkfFHV4jXpPFQw0GAbJ--3" value="review&#xa;" style="text;align=left;verticalAlign=top;spacingLeft=4;spacingRight=4;overflow=hidden;rotatable=0;points=[[0,0.5],[1,0.5]];portConstraint=eastwest;rounded=0;shadow=0;html=0;" parent="zkfFHV4jXpPFQw0GAbJ--0" vertex="1">
          <mxGeometry y="104" width="210" height="26" as="geometry" />
        </mxCell>
        <mxCell id="tj4HGv5EF83Of4Jhq_q1-2" value="price&#xa;" style="text;align=left;verticalAlign=top;spacingLeft=4;spacingRight=4;overflow=hidden;rotatable=0;points=[[0,0.5],[1,0.5]];portConstraint=eastwest;rounded=0;shadow=0;html=0;" parent="zkfFHV4jXpPFQw0GAbJ--0" vertex="1">
          <mxGeometry y="130" width="210" height="26" as="geometry" />
        </mxCell>
        <mxCell id="tj4HGv5EF83Of4Jhq_q1-3" value="release_date" style="text;align=left;verticalAlign=top;spacingLeft=4;spacingRight=4;overflow=hidden;rotatable=0;points=[[0,0.5],[1,0.5]];portConstraint=eastwest;rounded=0;shadow=0;html=0;" parent="zkfFHV4jXpPFQw0GAbJ--0" vertex="1">
          <mxGeometry y="156" width="210" height="26" as="geometry" />
        </mxCell>
        <mxCell id="tj4HGv5EF83Of4Jhq_q1-4" value="description" style="text;align=left;verticalAlign=top;spacingLeft=4;spacingRight=4;overflow=hidden;rotatable=0;points=[[0,0.5],[1,0.5]];portConstraint=eastwest;rounded=0;shadow=0;html=0;" parent="zkfFHV4jXpPFQw0GAbJ--0" vertex="1">
          <mxGeometry y="182" width="210" height="28" as="geometry" />
        </mxCell>
        <mxCell id="tj4HGv5EF83Of4Jhq_q1-6" value="publisher&#xa;" style="text;align=left;verticalAlign=top;spacingLeft=4;spacingRight=4;overflow=hidden;rotatable=0;points=[[0,0.5],[1,0.5]];portConstraint=eastwest;rounded=0;shadow=0;html=0;" parent="zkfFHV4jXpPFQw0GAbJ--0" vertex="1">
          <mxGeometry y="210" width="210" height="28" as="geometry" />
        </mxCell>
        <mxCell id="tj4HGv5EF83Of4Jhq_q1-7" value="image_url&#xa;" style="text;align=left;verticalAlign=top;spacingLeft=4;spacingRight=4;overflow=hidden;rotatable=0;points=[[0,0.5],[1,0.5]];portConstraint=eastwest;rounded=0;shadow=0;html=0;" parent="zkfFHV4jXpPFQw0GAbJ--0" vertex="1">
          <mxGeometry y="238" width="210" height="28" as="geometry" />
        </mxCell>
        <mxCell id="tj4HGv5EF83Of4Jhq_q1-8" value="website_url" style="text;align=left;verticalAlign=top;spacingLeft=4;spacingRight=4;overflow=hidden;rotatable=0;points=[[0,0.5],[1,0.5]];portConstraint=eastwest;rounded=0;shadow=0;html=0;" parent="zkfFHV4jXpPFQw0GAbJ--0" vertex="1">
          <mxGeometry y="266" width="210" height="28" as="geometry" />
        </mxCell>
        <mxCell id="zkfFHV4jXpPFQw0GAbJ--4" value="" style="line;html=1;strokeWidth=1;align=left;verticalAlign=middle;spacingTop=-1;spacingLeft=3;spacingRight=3;rotatable=0;labelPosition=right;points=[];portConstraint=eastwest;" parent="zkfFHV4jXpPFQw0GAbJ--0" vertex="1">
          <mxGeometry y="294" width="210" height="8" as="geometry" />
        </mxCell>
        <mxCell id="H5na8P6zB5dUHG_pkp8p-0" value="__init__(self, game_id, game_title)&#xa;" style="text;align=left;verticalAlign=top;spacingLeft=4;spacingRight=4;overflow=hidden;rotatable=0;points=[[0,0.5],[1,0.5]];portConstraint=eastwest;rounded=0;shadow=0;html=0;" vertex="1" parent="zkfFHV4jXpPFQw0GAbJ--0">
          <mxGeometry y="302" width="210" height="28" as="geometry" />
        </mxCell>
        <mxCell id="H5na8P6zB5dUHG_pkp8p-2" value="game_id(self)" style="text;align=left;verticalAlign=top;spacingLeft=4;spacingRight=4;overflow=hidden;rotatable=0;points=[[0,0.5],[1,0.5]];portConstraint=eastwest;rounded=0;shadow=0;html=0;" vertex="1" parent="zkfFHV4jXpPFQw0GAbJ--0">
          <mxGeometry y="330" width="210" height="28" as="geometry" />
        </mxCell>
        <mxCell id="H5na8P6zB5dUHG_pkp8p-3" value="genres(self)" style="text;align=left;verticalAlign=top;spacingLeft=4;spacingRight=4;overflow=hidden;rotatable=0;points=[[0,0.5],[1,0.5]];portConstraint=eastwest;rounded=0;shadow=0;html=0;" vertex="1" parent="zkfFHV4jXpPFQw0GAbJ--0">
          <mxGeometry y="358" width="210" height="28" as="geometry" />
        </mxCell>
        <mxCell id="H5na8P6zB5dUHG_pkp8p-4" value="reviews(self)" style="text;align=left;verticalAlign=top;spacingLeft=4;spacingRight=4;overflow=hidden;rotatable=0;points=[[0,0.5],[1,0.5]];portConstraint=eastwest;rounded=0;shadow=0;html=0;" vertex="1" parent="zkfFHV4jXpPFQw0GAbJ--0">
          <mxGeometry y="386" width="210" height="28" as="geometry" />
        </mxCell>
        <mxCell id="H5na8P6zB5dUHG_pkp8p-5" value="title(self)" style="text;align=left;verticalAlign=top;spacingLeft=4;spacingRight=4;overflow=hidden;rotatable=0;points=[[0,0.5],[1,0.5]];portConstraint=eastwest;rounded=0;shadow=0;html=0;" vertex="1" parent="zkfFHV4jXpPFQw0GAbJ--0">
          <mxGeometry y="414" width="210" height="28" as="geometry" />
        </mxCell>
        <mxCell id="H5na8P6zB5dUHG_pkp8p-6" value="title(self, new_title)" style="text;align=left;verticalAlign=top;spacingLeft=4;spacingRight=4;overflow=hidden;rotatable=0;points=[[0,0.5],[1,0.5]];portConstraint=eastwest;rounded=0;shadow=0;html=0;" vertex="1" parent="zkfFHV4jXpPFQw0GAbJ--0">
          <mxGeometry y="442" width="210" height="28" as="geometry" />
        </mxCell>
        <mxCell id="H5na8P6zB5dUHG_pkp8p-7" value="price(self)" style="text;align=left;verticalAlign=top;spacingLeft=4;spacingRight=4;overflow=hidden;rotatable=0;points=[[0,0.5],[1,0.5]];portConstraint=eastwest;rounded=0;shadow=0;html=0;" vertex="1" parent="zkfFHV4jXpPFQw0GAbJ--0">
          <mxGeometry y="470" width="210" height="28" as="geometry" />
        </mxCell>
        <mxCell id="H5na8P6zB5dUHG_pkp8p-8" value="price(self, price)" style="text;align=left;verticalAlign=top;spacingLeft=4;spacingRight=4;overflow=hidden;rotatable=0;points=[[0,0.5],[1,0.5]];portConstraint=eastwest;rounded=0;shadow=0;html=0;" vertex="1" parent="zkfFHV4jXpPFQw0GAbJ--0">
          <mxGeometry y="498" width="210" height="28" as="geometry" />
        </mxCell>
        <mxCell id="H5na8P6zB5dUHG_pkp8p-9" value="release_date(self)" style="text;align=left;verticalAlign=top;spacingLeft=4;spacingRight=4;overflow=hidden;rotatable=0;points=[[0,0.5],[1,0.5]];portConstraint=eastwest;rounded=0;shadow=0;html=0;" vertex="1" parent="zkfFHV4jXpPFQw0GAbJ--0">
          <mxGeometry y="526" width="210" height="28" as="geometry" />
        </mxCell>
        <mxCell id="H5na8P6zB5dUHG_pkp8p-10" value="release_date(self, date_string)" style="text;align=left;verticalAlign=top;spacingLeft=4;spacingRight=4;overflow=hidden;rotatable=0;points=[[0,0.5],[1,0.5]];portConstraint=eastwest;rounded=0;shadow=0;html=0;" vertex="1" parent="zkfFHV4jXpPFQw0GAbJ--0">
          <mxGeometry y="554" width="210" height="28" as="geometry" />
        </mxCell>
        <mxCell id="H5na8P6zB5dUHG_pkp8p-11" value="description(self)" style="text;align=left;verticalAlign=top;spacingLeft=4;spacingRight=4;overflow=hidden;rotatable=0;points=[[0,0.5],[1,0.5]];portConstraint=eastwest;rounded=0;shadow=0;html=0;" vertex="1" parent="zkfFHV4jXpPFQw0GAbJ--0">
          <mxGeometry y="582" width="210" height="28" as="geometry" />
        </mxCell>
        <mxCell id="H5na8P6zB5dUHG_pkp8p-12" value="description(self, description)" style="text;align=left;verticalAlign=top;spacingLeft=4;spacingRight=4;overflow=hidden;rotatable=0;points=[[0,0.5],[1,0.5]];portConstraint=eastwest;rounded=0;shadow=0;html=0;" vertex="1" parent="zkfFHV4jXpPFQw0GAbJ--0">
          <mxGeometry y="610" width="210" height="28" as="geometry" />
        </mxCell>
        <mxCell id="H5na8P6zB5dUHG_pkp8p-13" value="publisher(self)" style="text;align=left;verticalAlign=top;spacingLeft=4;spacingRight=4;overflow=hidden;rotatable=0;points=[[0,0.5],[1,0.5]];portConstraint=eastwest;rounded=0;shadow=0;html=0;" vertex="1" parent="zkfFHV4jXpPFQw0GAbJ--0">
          <mxGeometry y="638" width="210" height="28" as="geometry" />
        </mxCell>
        <mxCell id="H5na8P6zB5dUHG_pkp8p-14" value="publisher(self, publisher)" style="text;align=left;verticalAlign=top;spacingLeft=4;spacingRight=4;overflow=hidden;rotatable=0;points=[[0,0.5],[1,0.5]];portConstraint=eastwest;rounded=0;shadow=0;html=0;" vertex="1" parent="zkfFHV4jXpPFQw0GAbJ--0">
          <mxGeometry y="666" width="210" height="28" as="geometry" />
        </mxCell>
        <mxCell id="H5na8P6zB5dUHG_pkp8p-15" value="image_url(self)" style="text;align=left;verticalAlign=top;spacingLeft=4;spacingRight=4;overflow=hidden;rotatable=0;points=[[0,0.5],[1,0.5]];portConstraint=eastwest;rounded=0;shadow=0;html=0;" vertex="1" parent="zkfFHV4jXpPFQw0GAbJ--0">
          <mxGeometry y="694" width="210" height="28" as="geometry" />
        </mxCell>
        <mxCell id="H5na8P6zB5dUHG_pkp8p-16" value="image_url(self, url)" style="text;align=left;verticalAlign=top;spacingLeft=4;spacingRight=4;overflow=hidden;rotatable=0;points=[[0,0.5],[1,0.5]];portConstraint=eastwest;rounded=0;shadow=0;html=0;" vertex="1" parent="zkfFHV4jXpPFQw0GAbJ--0">
          <mxGeometry y="722" width="210" height="28" as="geometry" />
        </mxCell>
        <mxCell id="H5na8P6zB5dUHG_pkp8p-17" value="website_url(self)" style="text;align=left;verticalAlign=top;spacingLeft=4;spacingRight=4;overflow=hidden;rotatable=0;points=[[0,0.5],[1,0.5]];portConstraint=eastwest;rounded=0;shadow=0;html=0;" vertex="1" parent="zkfFHV4jXpPFQw0GAbJ--0">
          <mxGeometry y="750" width="210" height="28" as="geometry" />
        </mxCell>
        <mxCell id="H5na8P6zB5dUHG_pkp8p-18" value="website_url(self, url)" style="text;align=left;verticalAlign=top;spacingLeft=4;spacingRight=4;overflow=hidden;rotatable=0;points=[[0,0.5],[1,0.5]];portConstraint=eastwest;rounded=0;shadow=0;html=0;" vertex="1" parent="zkfFHV4jXpPFQw0GAbJ--0">
          <mxGeometry y="778" width="210" height="28" as="geometry" />
        </mxCell>
        <mxCell id="tj4HGv5EF83Of4Jhq_q1-10" value="__repr__(self)&#xa;" style="text;align=left;verticalAlign=top;spacingLeft=4;spacingRight=4;overflow=hidden;rotatable=0;points=[[0,0.5],[1,0.5]];portConstraint=eastwest;rounded=0;shadow=0;html=0;" parent="zkfFHV4jXpPFQw0GAbJ--0" vertex="1">
          <mxGeometry y="806" width="210" height="28" as="geometry" />
        </mxCell>
        <mxCell id="tj4HGv5EF83Of4Jhq_q1-11" value="__eq__(self, other)&#xa;" style="text;align=left;verticalAlign=top;spacingLeft=4;spacingRight=4;overflow=hidden;rotatable=0;points=[[0,0.5],[1,0.5]];portConstraint=eastwest;rounded=0;shadow=0;html=0;" parent="zkfFHV4jXpPFQw0GAbJ--0" vertex="1">
          <mxGeometry y="834" width="210" height="28" as="geometry" />
        </mxCell>
        <mxCell id="tj4HGv5EF83Of4Jhq_q1-12" value="__lt__(self, other)" style="text;align=left;verticalAlign=top;spacingLeft=4;spacingRight=4;overflow=hidden;rotatable=0;points=[[0,0.5],[1,0.5]];portConstraint=eastwest;rounded=0;shadow=0;html=0;" parent="zkfFHV4jXpPFQw0GAbJ--0" vertex="1">
          <mxGeometry y="862" width="210" height="28" as="geometry" />
        </mxCell>
        <mxCell id="tj4HGv5EF83Of4Jhq_q1-13" value="__hash__(self)" style="text;align=left;verticalAlign=top;spacingLeft=4;spacingRight=4;overflow=hidden;rotatable=0;points=[[0,0.5],[1,0.5]];portConstraint=eastwest;rounded=0;shadow=0;html=0;" parent="zkfFHV4jXpPFQw0GAbJ--0" vertex="1">
          <mxGeometry y="890" width="210" height="28" as="geometry" />
        </mxCell>
        <mxCell id="tj4HGv5EF83Of4Jhq_q1-14" value="add_genre(genre)" style="text;align=left;verticalAlign=top;spacingLeft=4;spacingRight=4;overflow=hidden;rotatable=0;points=[[0,0.5],[1,0.5]];portConstraint=eastwest;rounded=0;shadow=0;html=0;" parent="zkfFHV4jXpPFQw0GAbJ--0" vertex="1">
          <mxGeometry y="918" width="210" height="28" as="geometry" />
        </mxCell>
        <mxCell id="tj4HGv5EF83Of4Jhq_q1-15" value="remove_genre(genre)" style="text;align=left;verticalAlign=top;spacingLeft=4;spacingRight=4;overflow=hidden;rotatable=0;points=[[0,0.5],[1,0.5]];portConstraint=eastwest;rounded=0;shadow=0;html=0;" parent="zkfFHV4jXpPFQw0GAbJ--0" vertex="1">
          <mxGeometry y="946" width="210" height="28" as="geometry" />
        </mxCell>
        <mxCell id="tj4HGv5EF83Of4Jhq_q1-16" value="Publisher&lt;br&gt;" style="swimlane;fontStyle=1;align=center;verticalAlign=top;childLayout=stackLayout;horizontal=1;startSize=26;horizontalStack=0;resizeParent=1;resizeParentMax=0;resizeLast=0;collapsible=1;marginBottom=0;whiteSpace=wrap;html=1;" parent="WIyWlLk6GJQsqaUBKTNV-1" vertex="1">
          <mxGeometry x="784" y="1134" width="230" height="290" as="geometry" />
        </mxCell>
        <mxCell id="tj4HGv5EF83Of4Jhq_q1-17" value="publisher_name" style="text;strokeColor=none;fillColor=none;align=left;verticalAlign=top;spacingLeft=4;spacingRight=4;overflow=hidden;rotatable=0;points=[[0,0.5],[1,0.5]];portConstraint=eastwest;whiteSpace=wrap;html=1;" parent="tj4HGv5EF83Of4Jhq_q1-16" vertex="1">
          <mxGeometry y="26" width="230" height="24" as="geometry" />
        </mxCell>
        <mxCell id="tj4HGv5EF83Of4Jhq_q1-18" value="" style="line;strokeWidth=1;fillColor=none;align=left;verticalAlign=middle;spacingTop=-1;spacingLeft=3;spacingRight=3;rotatable=0;labelPosition=right;points=[];portConstraint=eastwest;strokeColor=inherit;" parent="tj4HGv5EF83Of4Jhq_q1-16" vertex="1">
          <mxGeometry y="50" width="230" height="8" as="geometry" />
        </mxCell>
        <mxCell id="tj4HGv5EF83Of4Jhq_q1-19" value="__init__(self, publisher_name)" style="text;strokeColor=none;fillColor=none;align=left;verticalAlign=top;spacingLeft=4;spacingRight=4;overflow=hidden;rotatable=0;points=[[0,0.5],[1,0.5]];portConstraint=eastwest;whiteSpace=wrap;html=1;" parent="tj4HGv5EF83Of4Jhq_q1-16" vertex="1">
          <mxGeometry y="58" width="230" height="30" as="geometry" />
        </mxCell>
        <mxCell id="tj4HGv5EF83Of4Jhq_q1-23" value="publisher_name(self)" style="text;strokeColor=none;fillColor=none;align=left;verticalAlign=top;spacingLeft=4;spacingRight=4;overflow=hidden;rotatable=0;points=[[0,0.5],[1,0.5]];portConstraint=eastwest;whiteSpace=wrap;html=1;" parent="tj4HGv5EF83Of4Jhq_q1-16" vertex="1">
          <mxGeometry y="88" width="230" height="30" as="geometry" />
        </mxCell>
        <mxCell id="H5na8P6zB5dUHG_pkp8p-19" value="publisher_name(self, new_publisher)" style="text;strokeColor=none;fillColor=none;align=left;verticalAlign=top;spacingLeft=4;spacingRight=4;overflow=hidden;rotatable=0;points=[[0,0.5],[1,0.5]];portConstraint=eastwest;whiteSpace=wrap;html=1;" vertex="1" parent="tj4HGv5EF83Of4Jhq_q1-16">
          <mxGeometry y="118" width="230" height="30" as="geometry" />
        </mxCell>
        <mxCell id="H5na8P6zB5dUHG_pkp8p-20" value="remove_publisher(self)" style="text;strokeColor=none;fillColor=none;align=left;verticalAlign=top;spacingLeft=4;spacingRight=4;overflow=hidden;rotatable=0;points=[[0,0.5],[1,0.5]];portConstraint=eastwest;whiteSpace=wrap;html=1;" vertex="1" parent="tj4HGv5EF83Of4Jhq_q1-16">
          <mxGeometry y="148" width="230" height="30" as="geometry" />
        </mxCell>
        <mxCell id="H5na8P6zB5dUHG_pkp8p-21" value="__repr__(self)&#xa;" style="text;align=left;verticalAlign=top;spacingLeft=4;spacingRight=4;overflow=hidden;rotatable=0;points=[[0,0.5],[1,0.5]];portConstraint=eastwest;rounded=0;shadow=0;html=0;" vertex="1" parent="tj4HGv5EF83Of4Jhq_q1-16">
          <mxGeometry y="178" width="230" height="28" as="geometry" />
        </mxCell>
        <mxCell id="H5na8P6zB5dUHG_pkp8p-24" value="__hash__(self)" style="text;align=left;verticalAlign=top;spacingLeft=4;spacingRight=4;overflow=hidden;rotatable=0;points=[[0,0.5],[1,0.5]];portConstraint=eastwest;rounded=0;shadow=0;html=0;" vertex="1" parent="tj4HGv5EF83Of4Jhq_q1-16">
          <mxGeometry y="206" width="230" height="28" as="geometry" />
        </mxCell>
        <mxCell id="H5na8P6zB5dUHG_pkp8p-23" value="__lt__(self, other)" style="text;align=left;verticalAlign=top;spacingLeft=4;spacingRight=4;overflow=hidden;rotatable=0;points=[[0,0.5],[1,0.5]];portConstraint=eastwest;rounded=0;shadow=0;html=0;" vertex="1" parent="tj4HGv5EF83Of4Jhq_q1-16">
          <mxGeometry y="234" width="230" height="28" as="geometry" />
        </mxCell>
        <mxCell id="H5na8P6zB5dUHG_pkp8p-22" value="__eq__(self, other)&#xa;" style="text;align=left;verticalAlign=top;spacingLeft=4;spacingRight=4;overflow=hidden;rotatable=0;points=[[0,0.5],[1,0.5]];portConstraint=eastwest;rounded=0;shadow=0;html=0;" vertex="1" parent="tj4HGv5EF83Of4Jhq_q1-16">
          <mxGeometry y="262" width="230" height="28" as="geometry" />
        </mxCell>
        <mxCell id="H5na8P6zB5dUHG_pkp8p-25" value="Genre" style="swimlane;fontStyle=1;align=center;verticalAlign=top;childLayout=stackLayout;horizontal=1;startSize=26;horizontalStack=0;resizeParent=1;resizeParentMax=0;resizeLast=0;collapsible=1;marginBottom=0;whiteSpace=wrap;html=1;" vertex="1" parent="WIyWlLk6GJQsqaUBKTNV-1">
          <mxGeometry x="53" y="1274" width="230" height="264" as="geometry" />
        </mxCell>
        <mxCell id="H5na8P6zB5dUHG_pkp8p-26" value="genre_name" style="text;strokeColor=none;fillColor=none;align=left;verticalAlign=top;spacingLeft=4;spacingRight=4;overflow=hidden;rotatable=0;points=[[0,0.5],[1,0.5]];portConstraint=eastwest;whiteSpace=wrap;html=1;" vertex="1" parent="H5na8P6zB5dUHG_pkp8p-25">
          <mxGeometry y="26" width="230" height="24" as="geometry" />
        </mxCell>
        <mxCell id="H5na8P6zB5dUHG_pkp8p-27" value="" style="line;strokeWidth=1;fillColor=none;align=left;verticalAlign=middle;spacingTop=-1;spacingLeft=3;spacingRight=3;rotatable=0;labelPosition=right;points=[];portConstraint=eastwest;strokeColor=inherit;" vertex="1" parent="H5na8P6zB5dUHG_pkp8p-25">
          <mxGeometry y="50" width="230" height="8" as="geometry" />
        </mxCell>
        <mxCell id="H5na8P6zB5dUHG_pkp8p-28" value="__init__(self, genre_name)" style="text;strokeColor=none;fillColor=none;align=left;verticalAlign=top;spacingLeft=4;spacingRight=4;overflow=hidden;rotatable=0;points=[[0,0.5],[1,0.5]];portConstraint=eastwest;whiteSpace=wrap;html=1;" vertex="1" parent="H5na8P6zB5dUHG_pkp8p-25">
          <mxGeometry y="58" width="230" height="30" as="geometry" />
        </mxCell>
        <mxCell id="H5na8P6zB5dUHG_pkp8p-29" value="genre_name(self)" style="text;strokeColor=none;fillColor=none;align=left;verticalAlign=top;spacingLeft=4;spacingRight=4;overflow=hidden;rotatable=0;points=[[0,0.5],[1,0.5]];portConstraint=eastwest;whiteSpace=wrap;html=1;" vertex="1" parent="H5na8P6zB5dUHG_pkp8p-25">
          <mxGeometry y="88" width="230" height="34" as="geometry" />
        </mxCell>
        <mxCell id="H5na8P6zB5dUHG_pkp8p-30" value="genre_name(self, new_genre)" style="text;strokeColor=none;fillColor=none;align=left;verticalAlign=top;spacingLeft=4;spacingRight=4;overflow=hidden;rotatable=0;points=[[0,0.5],[1,0.5]];portConstraint=eastwest;whiteSpace=wrap;html=1;" vertex="1" parent="H5na8P6zB5dUHG_pkp8p-25">
          <mxGeometry y="122" width="230" height="30" as="geometry" />
        </mxCell>
        <mxCell id="H5na8P6zB5dUHG_pkp8p-32" value="__repr__(self)&#xa;" style="text;align=left;verticalAlign=top;spacingLeft=4;spacingRight=4;overflow=hidden;rotatable=0;points=[[0,0.5],[1,0.5]];portConstraint=eastwest;rounded=0;shadow=0;html=0;" vertex="1" parent="H5na8P6zB5dUHG_pkp8p-25">
          <mxGeometry y="152" width="230" height="28" as="geometry" />
        </mxCell>
        <mxCell id="H5na8P6zB5dUHG_pkp8p-33" value="__hash__(self)" style="text;align=left;verticalAlign=top;spacingLeft=4;spacingRight=4;overflow=hidden;rotatable=0;points=[[0,0.5],[1,0.5]];portConstraint=eastwest;rounded=0;shadow=0;html=0;" vertex="1" parent="H5na8P6zB5dUHG_pkp8p-25">
          <mxGeometry y="180" width="230" height="28" as="geometry" />
        </mxCell>
        <mxCell id="H5na8P6zB5dUHG_pkp8p-34" value="__lt__(self, other)" style="text;align=left;verticalAlign=top;spacingLeft=4;spacingRight=4;overflow=hidden;rotatable=0;points=[[0,0.5],[1,0.5]];portConstraint=eastwest;rounded=0;shadow=0;html=0;" vertex="1" parent="H5na8P6zB5dUHG_pkp8p-25">
          <mxGeometry y="208" width="230" height="28" as="geometry" />
        </mxCell>
        <mxCell id="H5na8P6zB5dUHG_pkp8p-35" value="__eq__(self, other)&#xa;" style="text;align=left;verticalAlign=top;spacingLeft=4;spacingRight=4;overflow=hidden;rotatable=0;points=[[0,0.5],[1,0.5]];portConstraint=eastwest;rounded=0;shadow=0;html=0;" vertex="1" parent="H5na8P6zB5dUHG_pkp8p-25">
          <mxGeometry y="236" width="230" height="28" as="geometry" />
        </mxCell>
        <mxCell id="H5na8P6zB5dUHG_pkp8p-36" value="Wishlist" style="swimlane;fontStyle=1;align=center;verticalAlign=top;childLayout=stackLayout;horizontal=1;startSize=26;horizontalStack=0;resizeParent=1;resizeParentMax=0;resizeLast=0;collapsible=1;marginBottom=0;whiteSpace=wrap;html=1;" vertex="1" parent="WIyWlLk6GJQsqaUBKTNV-1">
          <mxGeometry x="756" y="392" width="230" height="258" as="geometry" />
        </mxCell>
        <mxCell id="H5na8P6zB5dUHG_pkp8p-37" value="list_of_games" style="text;strokeColor=none;fillColor=none;align=left;verticalAlign=top;spacingLeft=4;spacingRight=4;overflow=hidden;rotatable=0;points=[[0,0.5],[1,0.5]];portConstraint=eastwest;whiteSpace=wrap;html=1;" vertex="1" parent="H5na8P6zB5dUHG_pkp8p-36">
          <mxGeometry y="26" width="230" height="24" as="geometry" />
        </mxCell>
        <mxCell id="H5na8P6zB5dUHG_pkp8p-38" value="" style="line;strokeWidth=1;fillColor=none;align=left;verticalAlign=middle;spacingTop=-1;spacingLeft=3;spacingRight=3;rotatable=0;labelPosition=right;points=[];portConstraint=eastwest;strokeColor=inherit;" vertex="1" parent="H5na8P6zB5dUHG_pkp8p-36">
          <mxGeometry y="50" width="230" height="8" as="geometry" />
        </mxCell>
        <mxCell id="H5na8P6zB5dUHG_pkp8p-39" value="add_game(self, game)" style="text;strokeColor=none;fillColor=none;align=left;verticalAlign=top;spacingLeft=4;spacingRight=4;overflow=hidden;rotatable=0;points=[[0,0.5],[1,0.5]];portConstraint=eastwest;whiteSpace=wrap;html=1;" vertex="1" parent="H5na8P6zB5dUHG_pkp8p-36">
          <mxGeometry y="58" width="230" height="30" as="geometry" />
        </mxCell>
        <mxCell id="H5na8P6zB5dUHG_pkp8p-41" value="remove_game(self, game)&lt;br&gt;" style="text;strokeColor=none;fillColor=none;align=left;verticalAlign=top;spacingLeft=4;spacingRight=4;overflow=hidden;rotatable=0;points=[[0,0.5],[1,0.5]];portConstraint=eastwest;whiteSpace=wrap;html=1;" vertex="1" parent="H5na8P6zB5dUHG_pkp8p-36">
          <mxGeometry y="88" width="230" height="30" as="geometry" />
        </mxCell>
        <mxCell id="H5na8P6zB5dUHG_pkp8p-42" value="select_game(self, index)" style="text;align=left;verticalAlign=top;spacingLeft=4;spacingRight=4;overflow=hidden;rotatable=0;points=[[0,0.5],[1,0.5]];portConstraint=eastwest;rounded=0;shadow=0;html=0;" vertex="1" parent="H5na8P6zB5dUHG_pkp8p-36">
          <mxGeometry y="118" width="230" height="28" as="geometry" />
        </mxCell>
        <mxCell id="H5na8P6zB5dUHG_pkp8p-43" value="size(self)" style="text;align=left;verticalAlign=top;spacingLeft=4;spacingRight=4;overflow=hidden;rotatable=0;points=[[0,0.5],[1,0.5]];portConstraint=eastwest;rounded=0;shadow=0;html=0;" vertex="1" parent="H5na8P6zB5dUHG_pkp8p-36">
          <mxGeometry y="146" width="230" height="28" as="geometry" />
        </mxCell>
        <mxCell id="H5na8P6zB5dUHG_pkp8p-46" value="first_game_in_list(self)" style="text;align=left;verticalAlign=top;spacingLeft=4;spacingRight=4;overflow=hidden;rotatable=0;points=[[0,0.5],[1,0.5]];portConstraint=eastwest;rounded=0;shadow=0;html=0;" vertex="1" parent="H5na8P6zB5dUHG_pkp8p-36">
          <mxGeometry y="174" width="230" height="28" as="geometry" />
        </mxCell>
        <mxCell id="H5na8P6zB5dUHG_pkp8p-44" value="__iter__(self)" style="text;align=left;verticalAlign=top;spacingLeft=4;spacingRight=4;overflow=hidden;rotatable=0;points=[[0,0.5],[1,0.5]];portConstraint=eastwest;rounded=0;shadow=0;html=0;" vertex="1" parent="H5na8P6zB5dUHG_pkp8p-36">
          <mxGeometry y="202" width="230" height="28" as="geometry" />
        </mxCell>
        <mxCell id="H5na8P6zB5dUHG_pkp8p-45" value="__next__(self)&#xa;" style="text;align=left;verticalAlign=top;spacingLeft=4;spacingRight=4;overflow=hidden;rotatable=0;points=[[0,0.5],[1,0.5]];portConstraint=eastwest;rounded=0;shadow=0;html=0;" vertex="1" parent="H5na8P6zB5dUHG_pkp8p-36">
          <mxGeometry y="230" width="230" height="28" as="geometry" />
        </mxCell>
        <mxCell id="H5na8P6zB5dUHG_pkp8p-47" value="Review" style="swimlane;fontStyle=1;align=center;verticalAlign=top;childLayout=stackLayout;horizontal=1;startSize=26;horizontalStack=0;resizeParent=1;resizeParentMax=0;resizeLast=0;collapsible=1;marginBottom=0;whiteSpace=wrap;html=1;" vertex="1" parent="WIyWlLk6GJQsqaUBKTNV-1">
          <mxGeometry x="42" y="714" width="241" height="386" as="geometry" />
        </mxCell>
        <mxCell id="H5na8P6zB5dUHG_pkp8p-48" value="user&lt;br&gt;" style="text;strokeColor=none;fillColor=none;align=left;verticalAlign=top;spacingLeft=4;spacingRight=4;overflow=hidden;rotatable=0;points=[[0,0.5],[1,0.5]];portConstraint=eastwest;whiteSpace=wrap;html=1;" vertex="1" parent="H5na8P6zB5dUHG_pkp8p-47">
          <mxGeometry y="26" width="241" height="24" as="geometry" />
        </mxCell>
        <mxCell id="H5na8P6zB5dUHG_pkp8p-57" value="game&lt;br&gt;" style="text;strokeColor=none;fillColor=none;align=left;verticalAlign=top;spacingLeft=4;spacingRight=4;overflow=hidden;rotatable=0;points=[[0,0.5],[1,0.5]];portConstraint=eastwest;whiteSpace=wrap;html=1;" vertex="1" parent="H5na8P6zB5dUHG_pkp8p-47">
          <mxGeometry y="50" width="241" height="24" as="geometry" />
        </mxCell>
        <mxCell id="H5na8P6zB5dUHG_pkp8p-58" value="rating" style="text;strokeColor=none;fillColor=none;align=left;verticalAlign=top;spacingLeft=4;spacingRight=4;overflow=hidden;rotatable=0;points=[[0,0.5],[1,0.5]];portConstraint=eastwest;whiteSpace=wrap;html=1;" vertex="1" parent="H5na8P6zB5dUHG_pkp8p-47">
          <mxGeometry y="74" width="241" height="24" as="geometry" />
        </mxCell>
        <mxCell id="H5na8P6zB5dUHG_pkp8p-59" value="comment" style="text;strokeColor=none;fillColor=none;align=left;verticalAlign=top;spacingLeft=4;spacingRight=4;overflow=hidden;rotatable=0;points=[[0,0.5],[1,0.5]];portConstraint=eastwest;whiteSpace=wrap;html=1;" vertex="1" parent="H5na8P6zB5dUHG_pkp8p-47">
          <mxGeometry y="98" width="241" height="24" as="geometry" />
        </mxCell>
        <mxCell id="H5na8P6zB5dUHG_pkp8p-49" value="" style="line;strokeWidth=1;fillColor=none;align=left;verticalAlign=middle;spacingTop=-1;spacingLeft=3;spacingRight=3;rotatable=0;labelPosition=right;points=[];portConstraint=eastwest;strokeColor=inherit;" vertex="1" parent="H5na8P6zB5dUHG_pkp8p-47">
          <mxGeometry y="122" width="241" height="8" as="geometry" />
        </mxCell>
        <mxCell id="H5na8P6zB5dUHG_pkp8p-50" value="__init__(self, user, game, rating, comment)" style="text;strokeColor=none;fillColor=none;align=left;verticalAlign=top;spacingLeft=4;spacingRight=4;overflow=hidden;rotatable=0;points=[[0,0.5],[1,0.5]];portConstraint=eastwest;whiteSpace=wrap;html=1;" vertex="1" parent="H5na8P6zB5dUHG_pkp8p-47">
          <mxGeometry y="130" width="241" height="30" as="geometry" />
        </mxCell>
        <mxCell id="H5na8P6zB5dUHG_pkp8p-51" value="user(self)" style="text;strokeColor=none;fillColor=none;align=left;verticalAlign=top;spacingLeft=4;spacingRight=4;overflow=hidden;rotatable=0;points=[[0,0.5],[1,0.5]];portConstraint=eastwest;whiteSpace=wrap;html=1;" vertex="1" parent="H5na8P6zB5dUHG_pkp8p-47">
          <mxGeometry y="160" width="241" height="30" as="geometry" />
        </mxCell>
        <mxCell id="H5na8P6zB5dUHG_pkp8p-52" value="game(self)" style="text;align=left;verticalAlign=top;spacingLeft=4;spacingRight=4;overflow=hidden;rotatable=0;points=[[0,0.5],[1,0.5]];portConstraint=eastwest;rounded=0;shadow=0;html=0;" vertex="1" parent="H5na8P6zB5dUHG_pkp8p-47">
          <mxGeometry y="190" width="241" height="28" as="geometry" />
        </mxCell>
        <mxCell id="H5na8P6zB5dUHG_pkp8p-53" value="rating(self)" style="text;align=left;verticalAlign=top;spacingLeft=4;spacingRight=4;overflow=hidden;rotatable=0;points=[[0,0.5],[1,0.5]];portConstraint=eastwest;rounded=0;shadow=0;html=0;" vertex="1" parent="H5na8P6zB5dUHG_pkp8p-47">
          <mxGeometry y="218" width="241" height="28" as="geometry" />
        </mxCell>
        <mxCell id="H5na8P6zB5dUHG_pkp8p-54" value="rating(self, new_rating)" style="text;align=left;verticalAlign=top;spacingLeft=4;spacingRight=4;overflow=hidden;rotatable=0;points=[[0,0.5],[1,0.5]];portConstraint=eastwest;rounded=0;shadow=0;html=0;" vertex="1" parent="H5na8P6zB5dUHG_pkp8p-47">
          <mxGeometry y="246" width="241" height="28" as="geometry" />
        </mxCell>
        <mxCell id="H5na8P6zB5dUHG_pkp8p-60" value="comment(self)" style="text;align=left;verticalAlign=top;spacingLeft=4;spacingRight=4;overflow=hidden;rotatable=0;points=[[0,0.5],[1,0.5]];portConstraint=eastwest;rounded=0;shadow=0;html=0;" vertex="1" parent="H5na8P6zB5dUHG_pkp8p-47">
          <mxGeometry y="274" width="241" height="28" as="geometry" />
        </mxCell>
        <mxCell id="H5na8P6zB5dUHG_pkp8p-61" value="comment(self, new_comment)" style="text;align=left;verticalAlign=top;spacingLeft=4;spacingRight=4;overflow=hidden;rotatable=0;points=[[0,0.5],[1,0.5]];portConstraint=eastwest;rounded=0;shadow=0;html=0;" vertex="1" parent="H5na8P6zB5dUHG_pkp8p-47">
          <mxGeometry y="302" width="241" height="28" as="geometry" />
        </mxCell>
        <mxCell id="H5na8P6zB5dUHG_pkp8p-55" value="__repr__(self)" style="text;align=left;verticalAlign=top;spacingLeft=4;spacingRight=4;overflow=hidden;rotatable=0;points=[[0,0.5],[1,0.5]];portConstraint=eastwest;rounded=0;shadow=0;html=0;" vertex="1" parent="H5na8P6zB5dUHG_pkp8p-47">
          <mxGeometry y="330" width="241" height="28" as="geometry" />
        </mxCell>
        <mxCell id="H5na8P6zB5dUHG_pkp8p-56" value="__eq__(self, other)" style="text;align=left;verticalAlign=top;spacingLeft=4;spacingRight=4;overflow=hidden;rotatable=0;points=[[0,0.5],[1,0.5]];portConstraint=eastwest;rounded=0;shadow=0;html=0;" vertex="1" parent="H5na8P6zB5dUHG_pkp8p-47">
          <mxGeometry y="358" width="241" height="28" as="geometry" />
        </mxCell>
        <mxCell id="H5na8P6zB5dUHG_pkp8p-107" style="edgeStyle=orthogonalEdgeStyle;rounded=0;orthogonalLoop=1;jettySize=auto;html=1;exitX=0.5;exitY=0;exitDx=0;exitDy=0;" edge="1" parent="WIyWlLk6GJQsqaUBKTNV-1" source="H5na8P6zB5dUHG_pkp8p-62">
          <mxGeometry relative="1" as="geometry">
            <mxPoint x="496.53846153846143" y="1148" as="targetPoint" />
          </mxGeometry>
        </mxCell>
        <mxCell id="H5na8P6zB5dUHG_pkp8p-62" value="GameFileCSVReader" style="swimlane;fontStyle=1;align=center;verticalAlign=top;childLayout=stackLayout;horizontal=1;startSize=26;horizontalStack=0;resizeParent=1;resizeParentMax=0;resizeLast=0;collapsible=1;marginBottom=0;whiteSpace=wrap;html=1;" vertex="1" parent="WIyWlLk6GJQsqaUBKTNV-1">
          <mxGeometry x="376.5" y="1274" width="241" height="136" as="geometry" />
        </mxCell>
        <mxCell id="H5na8P6zB5dUHG_pkp8p-63" value="dataset_of_games" style="text;strokeColor=none;fillColor=none;align=left;verticalAlign=top;spacingLeft=4;spacingRight=4;overflow=hidden;rotatable=0;points=[[0,0.5],[1,0.5]];portConstraint=eastwest;whiteSpace=wrap;html=1;" vertex="1" parent="H5na8P6zB5dUHG_pkp8p-62">
          <mxGeometry y="26" width="241" height="24" as="geometry" />
        </mxCell>
        <mxCell id="H5na8P6zB5dUHG_pkp8p-64" value="dataset_of_publishers" style="text;strokeColor=none;fillColor=none;align=left;verticalAlign=top;spacingLeft=4;spacingRight=4;overflow=hidden;rotatable=0;points=[[0,0.5],[1,0.5]];portConstraint=eastwest;whiteSpace=wrap;html=1;" vertex="1" parent="H5na8P6zB5dUHG_pkp8p-62">
          <mxGeometry y="50" width="241" height="24" as="geometry" />
        </mxCell>
        <mxCell id="H5na8P6zB5dUHG_pkp8p-65" value="dataset_of_genres" style="text;strokeColor=none;fillColor=none;align=left;verticalAlign=top;spacingLeft=4;spacingRight=4;overflow=hidden;rotatable=0;points=[[0,0.5],[1,0.5]];portConstraint=eastwest;whiteSpace=wrap;html=1;" vertex="1" parent="H5na8P6zB5dUHG_pkp8p-62">
          <mxGeometry y="74" width="241" height="24" as="geometry" />
        </mxCell>
        <mxCell id="H5na8P6zB5dUHG_pkp8p-67" value="" style="line;strokeWidth=1;fillColor=none;align=left;verticalAlign=middle;spacingTop=-1;spacingLeft=3;spacingRight=3;rotatable=0;labelPosition=right;points=[];portConstraint=eastwest;strokeColor=inherit;" vertex="1" parent="H5na8P6zB5dUHG_pkp8p-62">
          <mxGeometry y="98" width="241" height="8" as="geometry" />
        </mxCell>
        <mxCell id="H5na8P6zB5dUHG_pkp8p-68" value="read_csv_file()" style="text;strokeColor=none;fillColor=none;align=left;verticalAlign=top;spacingLeft=4;spacingRight=4;overflow=hidden;rotatable=0;points=[[0,0.5],[1,0.5]];portConstraint=eastwest;whiteSpace=wrap;html=1;" vertex="1" parent="H5na8P6zB5dUHG_pkp8p-62">
          <mxGeometry y="106" width="241" height="30" as="geometry" />
        </mxCell>
        <mxCell id="H5na8P6zB5dUHG_pkp8p-78" value="User" style="swimlane;fontStyle=1;align=center;verticalAlign=top;childLayout=stackLayout;horizontal=1;startSize=26;horizontalStack=0;resizeParent=1;resizeParentMax=0;resizeLast=0;collapsible=1;marginBottom=0;whiteSpace=wrap;html=1;" vertex="1" parent="WIyWlLk6GJQsqaUBKTNV-1">
          <mxGeometry x="69" y="14" width="241" height="498" as="geometry" />
        </mxCell>
        <mxCell id="H5na8P6zB5dUHG_pkp8p-79" value="password" style="text;strokeColor=none;fillColor=none;align=left;verticalAlign=top;spacingLeft=4;spacingRight=4;overflow=hidden;rotatable=0;points=[[0,0.5],[1,0.5]];portConstraint=eastwest;whiteSpace=wrap;html=1;" vertex="1" parent="H5na8P6zB5dUHG_pkp8p-78">
          <mxGeometry y="26" width="241" height="24" as="geometry" />
        </mxCell>
        <mxCell id="H5na8P6zB5dUHG_pkp8p-80" value="username" style="text;strokeColor=none;fillColor=none;align=left;verticalAlign=top;spacingLeft=4;spacingRight=4;overflow=hidden;rotatable=0;points=[[0,0.5],[1,0.5]];portConstraint=eastwest;whiteSpace=wrap;html=1;" vertex="1" parent="H5na8P6zB5dUHG_pkp8p-78">
          <mxGeometry y="50" width="241" height="24" as="geometry" />
        </mxCell>
        <mxCell id="H5na8P6zB5dUHG_pkp8p-81" value="favourite_games" style="text;strokeColor=none;fillColor=none;align=left;verticalAlign=top;spacingLeft=4;spacingRight=4;overflow=hidden;rotatable=0;points=[[0,0.5],[1,0.5]];portConstraint=eastwest;whiteSpace=wrap;html=1;" vertex="1" parent="H5na8P6zB5dUHG_pkp8p-78">
          <mxGeometry y="74" width="241" height="24" as="geometry" />
        </mxCell>
        <mxCell id="H5na8P6zB5dUHG_pkp8p-82" value="reviews" style="text;strokeColor=none;fillColor=none;align=left;verticalAlign=top;spacingLeft=4;spacingRight=4;overflow=hidden;rotatable=0;points=[[0,0.5],[1,0.5]];portConstraint=eastwest;whiteSpace=wrap;html=1;" vertex="1" parent="H5na8P6zB5dUHG_pkp8p-78">
          <mxGeometry y="98" width="241" height="24" as="geometry" />
        </mxCell>
        <mxCell id="H5na8P6zB5dUHG_pkp8p-83" value="" style="line;strokeWidth=1;fillColor=none;align=left;verticalAlign=middle;spacingTop=-1;spacingLeft=3;spacingRight=3;rotatable=0;labelPosition=right;points=[];portConstraint=eastwest;strokeColor=inherit;" vertex="1" parent="H5na8P6zB5dUHG_pkp8p-78">
          <mxGeometry y="122" width="241" height="8" as="geometry" />
        </mxCell>
        <mxCell id="H5na8P6zB5dUHG_pkp8p-84" value="__init__(self, username, password)" style="text;strokeColor=none;fillColor=none;align=left;verticalAlign=top;spacingLeft=4;spacingRight=4;overflow=hidden;rotatable=0;points=[[0,0.5],[1,0.5]];portConstraint=eastwest;whiteSpace=wrap;html=1;" vertex="1" parent="H5na8P6zB5dUHG_pkp8p-78">
          <mxGeometry y="130" width="241" height="30" as="geometry" />
        </mxCell>
        <mxCell id="H5na8P6zB5dUHG_pkp8p-85" value="username(self)" style="text;strokeColor=none;fillColor=none;align=left;verticalAlign=top;spacingLeft=4;spacingRight=4;overflow=hidden;rotatable=0;points=[[0,0.5],[1,0.5]];portConstraint=eastwest;whiteSpace=wrap;html=1;" vertex="1" parent="H5na8P6zB5dUHG_pkp8p-78">
          <mxGeometry y="160" width="241" height="30" as="geometry" />
        </mxCell>
        <mxCell id="H5na8P6zB5dUHG_pkp8p-86" value="password(self)" style="text;align=left;verticalAlign=top;spacingLeft=4;spacingRight=4;overflow=hidden;rotatable=0;points=[[0,0.5],[1,0.5]];portConstraint=eastwest;rounded=0;shadow=0;html=0;" vertex="1" parent="H5na8P6zB5dUHG_pkp8p-78">
          <mxGeometry y="190" width="241" height="28" as="geometry" />
        </mxCell>
        <mxCell id="H5na8P6zB5dUHG_pkp8p-87" value="favourite_games(self)" style="text;align=left;verticalAlign=top;spacingLeft=4;spacingRight=4;overflow=hidden;rotatable=0;points=[[0,0.5],[1,0.5]];portConstraint=eastwest;rounded=0;shadow=0;html=0;" vertex="1" parent="H5na8P6zB5dUHG_pkp8p-78">
          <mxGeometry y="218" width="241" height="28" as="geometry" />
        </mxCell>
        <mxCell id="H5na8P6zB5dUHG_pkp8p-88" value="reviews(self)" style="text;align=left;verticalAlign=top;spacingLeft=4;spacingRight=4;overflow=hidden;rotatable=0;points=[[0,0.5],[1,0.5]];portConstraint=eastwest;rounded=0;shadow=0;html=0;" vertex="1" parent="H5na8P6zB5dUHG_pkp8p-78">
          <mxGeometry y="246" width="241" height="28" as="geometry" />
        </mxCell>
        <mxCell id="H5na8P6zB5dUHG_pkp8p-89" value="__repr__(self)" style="text;align=left;verticalAlign=top;spacingLeft=4;spacingRight=4;overflow=hidden;rotatable=0;points=[[0,0.5],[1,0.5]];portConstraint=eastwest;rounded=0;shadow=0;html=0;" vertex="1" parent="H5na8P6zB5dUHG_pkp8p-78">
          <mxGeometry y="274" width="241" height="28" as="geometry" />
        </mxCell>
        <mxCell id="H5na8P6zB5dUHG_pkp8p-90" value="__eq__(self, other)" style="text;align=left;verticalAlign=top;spacingLeft=4;spacingRight=4;overflow=hidden;rotatable=0;points=[[0,0.5],[1,0.5]];portConstraint=eastwest;rounded=0;shadow=0;html=0;" vertex="1" parent="H5na8P6zB5dUHG_pkp8p-78">
          <mxGeometry y="302" width="241" height="28" as="geometry" />
        </mxCell>
        <mxCell id="H5na8P6zB5dUHG_pkp8p-91" value="__lt__(self, other)" style="text;align=left;verticalAlign=top;spacingLeft=4;spacingRight=4;overflow=hidden;rotatable=0;points=[[0,0.5],[1,0.5]];portConstraint=eastwest;rounded=0;shadow=0;html=0;" vertex="1" parent="H5na8P6zB5dUHG_pkp8p-78">
          <mxGeometry y="330" width="241" height="28" as="geometry" />
        </mxCell>
        <mxCell id="H5na8P6zB5dUHG_pkp8p-92" value="__hash__(self)" style="text;align=left;verticalAlign=top;spacingLeft=4;spacingRight=4;overflow=hidden;rotatable=0;points=[[0,0.5],[1,0.5]];portConstraint=eastwest;rounded=0;shadow=0;html=0;" vertex="1" parent="H5na8P6zB5dUHG_pkp8p-78">
          <mxGeometry y="358" width="241" height="28" as="geometry" />
        </mxCell>
        <mxCell id="H5na8P6zB5dUHG_pkp8p-93" value="add_favourite_game(self, game)" style="text;align=left;verticalAlign=top;spacingLeft=4;spacingRight=4;overflow=hidden;rotatable=0;points=[[0,0.5],[1,0.5]];portConstraint=eastwest;rounded=0;shadow=0;html=0;" vertex="1" parent="H5na8P6zB5dUHG_pkp8p-78">
          <mxGeometry y="386" width="241" height="28" as="geometry" />
        </mxCell>
        <mxCell id="H5na8P6zB5dUHG_pkp8p-94" value="remove_favourite_game(self, game)" style="text;align=left;verticalAlign=top;spacingLeft=4;spacingRight=4;overflow=hidden;rotatable=0;points=[[0,0.5],[1,0.5]];portConstraint=eastwest;rounded=0;shadow=0;html=0;" vertex="1" parent="H5na8P6zB5dUHG_pkp8p-78">
          <mxGeometry y="414" width="241" height="28" as="geometry" />
        </mxCell>
        <mxCell id="H5na8P6zB5dUHG_pkp8p-95" value="add_review(self, review)" style="text;align=left;verticalAlign=top;spacingLeft=4;spacingRight=4;overflow=hidden;rotatable=0;points=[[0,0.5],[1,0.5]];portConstraint=eastwest;rounded=0;shadow=0;html=0;" vertex="1" parent="H5na8P6zB5dUHG_pkp8p-78">
          <mxGeometry y="442" width="241" height="28" as="geometry" />
        </mxCell>
        <mxCell id="H5na8P6zB5dUHG_pkp8p-96" value="remove_review(self, review)" style="text;align=left;verticalAlign=top;spacingLeft=4;spacingRight=4;overflow=hidden;rotatable=0;points=[[0,0.5],[1,0.5]];portConstraint=eastwest;rounded=0;shadow=0;html=0;" vertex="1" parent="H5na8P6zB5dUHG_pkp8p-78">
          <mxGeometry y="470" width="241" height="28" as="geometry" />
        </mxCell>
        <mxCell id="H5na8P6zB5dUHG_pkp8p-97" style="edgeStyle=orthogonalEdgeStyle;rounded=0;orthogonalLoop=1;jettySize=auto;html=1;exitX=0;exitY=0.5;exitDx=0;exitDy=0;entryX=1;entryY=0.5;entryDx=0;entryDy=0;" edge="1" parent="WIyWlLk6GJQsqaUBKTNV-1" source="H5na8P6zB5dUHG_pkp8p-42" target="H5na8P6zB5dUHG_pkp8p-5">
          <mxGeometry relative="1" as="geometry" />
        </mxCell>
        <mxCell id="H5na8P6zB5dUHG_pkp8p-98" value="0..*" style="text;html=1;align=center;verticalAlign=middle;resizable=0;points=[];autosize=1;strokeColor=none;fillColor=none;" vertex="1" parent="WIyWlLk6GJQsqaUBKTNV-1">
          <mxGeometry x="602" y="573" width="42" height="28" as="geometry" />
        </mxCell>
        <mxCell id="H5na8P6zB5dUHG_pkp8p-99" style="edgeStyle=orthogonalEdgeStyle;rounded=0;orthogonalLoop=1;jettySize=auto;html=1;exitX=1;exitY=0.5;exitDx=0;exitDy=0;entryX=-0.026;entryY=-0.074;entryDx=0;entryDy=0;entryPerimeter=0;" edge="1" parent="WIyWlLk6GJQsqaUBKTNV-1" source="tj4HGv5EF83Of4Jhq_q1-11" target="tj4HGv5EF83Of4Jhq_q1-23">
          <mxGeometry relative="1" as="geometry" />
        </mxCell>
        <mxCell id="H5na8P6zB5dUHG_pkp8p-100" value="1" style="text;html=1;align=center;verticalAlign=middle;resizable=0;points=[];autosize=1;strokeColor=none;fillColor=none;" vertex="1" parent="WIyWlLk6GJQsqaUBKTNV-1">
          <mxGeometry x="742" y="1190" width="42" height="28" as="geometry" />
        </mxCell>
        <mxCell id="H5na8P6zB5dUHG_pkp8p-101" style="edgeStyle=orthogonalEdgeStyle;rounded=0;orthogonalLoop=1;jettySize=auto;html=1;exitX=1;exitY=0.5;exitDx=0;exitDy=0;entryX=0.008;entryY=-0.074;entryDx=0;entryDy=0;entryPerimeter=0;" edge="1" parent="WIyWlLk6GJQsqaUBKTNV-1" source="H5na8P6zB5dUHG_pkp8p-65" target="H5na8P6zB5dUHG_pkp8p-23">
          <mxGeometry relative="1" as="geometry" />
        </mxCell>
        <mxCell id="H5na8P6zB5dUHG_pkp8p-102" value="0..*" style="text;html=1;align=center;verticalAlign=middle;resizable=0;points=[];autosize=1;strokeColor=none;fillColor=none;" vertex="1" parent="WIyWlLk6GJQsqaUBKTNV-1">
          <mxGeometry x="742" y="1344" width="42" height="28" as="geometry" />
        </mxCell>
        <mxCell id="H5na8P6zB5dUHG_pkp8p-104" style="edgeStyle=orthogonalEdgeStyle;rounded=0;orthogonalLoop=1;jettySize=auto;html=1;exitX=0;exitY=0.5;exitDx=0;exitDy=0;entryX=0.979;entryY=-0.111;entryDx=0;entryDy=0;entryPerimeter=0;" edge="1" parent="WIyWlLk6GJQsqaUBKTNV-1" source="H5na8P6zB5dUHG_pkp8p-65" target="H5na8P6zB5dUHG_pkp8p-29">
          <mxGeometry relative="1" as="geometry" />
        </mxCell>
        <mxCell id="H5na8P6zB5dUHG_pkp8p-105" value="0..*" style="text;html=1;align=center;verticalAlign=middle;resizable=0;points=[];autosize=1;strokeColor=none;fillColor=none;" vertex="1" parent="WIyWlLk6GJQsqaUBKTNV-1">
          <mxGeometry x="279" y="1329" width="42" height="28" as="geometry" />
        </mxCell>
        <mxCell id="H5na8P6zB5dUHG_pkp8p-108" value="0..*" style="text;html=1;align=center;verticalAlign=middle;resizable=0;points=[];autosize=1;strokeColor=none;fillColor=none;" vertex="1" parent="WIyWlLk6GJQsqaUBKTNV-1">
          <mxGeometry x="504" y="1147" width="42" height="28" as="geometry" />
        </mxCell>
        <mxCell id="H5na8P6zB5dUHG_pkp8p-109" style="edgeStyle=orthogonalEdgeStyle;rounded=0;orthogonalLoop=1;jettySize=auto;html=1;exitX=0;exitY=0.5;exitDx=0;exitDy=0;entryX=1;entryY=0.5;entryDx=0;entryDy=0;" edge="1" parent="WIyWlLk6GJQsqaUBKTNV-1" source="H5na8P6zB5dUHG_pkp8p-110" target="H5na8P6zB5dUHG_pkp8p-26">
          <mxGeometry relative="1" as="geometry" />
        </mxCell>
        <mxCell id="H5na8P6zB5dUHG_pkp8p-111" value="" style="edgeStyle=orthogonalEdgeStyle;rounded=0;orthogonalLoop=1;jettySize=auto;html=1;exitX=0;exitY=0.5;exitDx=0;exitDy=0;entryX=1;entryY=0.5;entryDx=0;entryDy=0;" edge="1" parent="WIyWlLk6GJQsqaUBKTNV-1" source="tj4HGv5EF83Of4Jhq_q1-15" target="H5na8P6zB5dUHG_pkp8p-26">
          <mxGeometry relative="1" as="geometry">
            <mxPoint x="392" y="1128" as="sourcePoint" />
            <mxPoint x="283" y="1312" as="targetPoint" />
          </mxGeometry>
        </mxCell>
        <mxCell id="H5na8P6zB5dUHG_pkp8p-110" value="0..*" style="text;html=1;align=center;verticalAlign=middle;resizable=0;points=[];autosize=1;strokeColor=none;fillColor=none;" vertex="1" parent="WIyWlLk6GJQsqaUBKTNV-1">
          <mxGeometry x="283" y="1288" width="42" height="28" as="geometry" />
        </mxCell>
        <mxCell id="H5na8P6zB5dUHG_pkp8p-112" style="edgeStyle=orthogonalEdgeStyle;rounded=0;orthogonalLoop=1;jettySize=auto;html=1;exitX=0;exitY=0.5;exitDx=0;exitDy=0;entryX=1.015;entryY=1.167;entryDx=0;entryDy=0;entryPerimeter=0;" edge="1" parent="WIyWlLk6GJQsqaUBKTNV-1" source="H5na8P6zB5dUHG_pkp8p-13" target="H5na8P6zB5dUHG_pkp8p-59">
          <mxGeometry relative="1" as="geometry" />
        </mxCell>
        <mxCell id="H5na8P6zB5dUHG_pkp8p-113" value="0..*" style="text;html=1;align=center;verticalAlign=middle;resizable=0;points=[];autosize=1;strokeColor=none;fillColor=none;" vertex="1" parent="WIyWlLk6GJQsqaUBKTNV-1">
          <mxGeometry x="283" y="813" width="42" height="28" as="geometry" />
        </mxCell>
        <mxCell id="H5na8P6zB5dUHG_pkp8p-114" style="edgeStyle=orthogonalEdgeStyle;rounded=0;orthogonalLoop=1;jettySize=auto;html=1;exitX=1;exitY=0.5;exitDx=0;exitDy=0;" edge="1" parent="WIyWlLk6GJQsqaUBKTNV-1" source="H5na8P6zB5dUHG_pkp8p-96" target="H5na8P6zB5dUHG_pkp8p-47">
          <mxGeometry relative="1" as="geometry" />
        </mxCell>
        <mxCell id="H5na8P6zB5dUHG_pkp8p-115" value="1" style="text;html=1;align=center;verticalAlign=middle;resizable=0;points=[];autosize=1;strokeColor=none;fillColor=none;" vertex="1" parent="WIyWlLk6GJQsqaUBKTNV-1">
          <mxGeometry x="154" y="686" width="42" height="28" as="geometry" />
        </mxCell>
      </root>
    </mxGraphModel>
  </diagram>
</mxfile>
